<svg width="405" height="86" xmlns="http://www.w3.org/2000/svg" xmlns:xlink="http://www.w3.org/1999/xlink" xml:space="preserve" overflow="hidden"><g transform="translate(-437 -318)"><g><g><g><g><path d="M0 0C0.173158 0.0865789 0.352976 0.143854 0.540785 0.173158 0.727263 0.202461 0.937716 0.217113 1.16815 0.217113 1.37061 0.217113 1.58772 0.209121 1.81816 0.195802 2.04859 0.179818 2.29368 0.158506 2.55474 0.130534 2.87176 0.0998988 3.21008 0.079919 3.57105 0.0652672 3.93201 0.0506154 4.31429 0.0439555 4.71789 0.0439555 5.20939 0.0719271 5.7222 0.123874 6.25633 0.195802 6.79045 0.266397 7.33124 0.375619 7.87868 0.519474 9.84203 1.03895 11.6535 1.95535 13.3145 3.27002 14.9742 4.58202 15.804 6.22169 15.804 8.18371 15.804 8.29826 15.7973 8.42213 15.7827 8.55267 15.7667 8.68187 15.7454 8.81773 15.7174 8.96292 15.5736 9.56897 15.2326 10.1164 14.6998 10.6079 14.1656 11.0994 13.3212 11.3445 12.1677 11.3445 11.3285 11.3445 10.3468 11.1354 9.22132 10.7171 8.0958 10.2976 6.9423 9.75678 5.75816 9.09345 5.06553 8.71783 4.3729 8.30492 3.68027 7.86003 2.98631 7.40982 2.32165 6.9716 1.68762 6.53871 1.14018 6.13245 0.634024 5.75017 0.173158 5.39187-0.28904 5.02957-0.708615 4.67659-1.0829 4.33028L-7.96659-1.86211C-8.74714-2.55474-9.58495-3.36326-10.48-4.28632-11.3751-5.20939-12.2836-6.16309-13.2066-7.14476-13.4091-7.34722-13.6035-7.54968-13.7914-7.75081-13.9805-7.95327-14.1736-8.15574-14.3774-8.35686-15.9931-10.0019-17.5662-11.4524-19.0953-12.7085-20.6258-13.9645-21.9391-14.5919-23.0367-14.5919-23.4975-14.5919-23.9104-14.44-24.2701-14.1377-24.631-13.834-24.8828-13.4957-25.028-13.1187-25.0852-13.0321-25.1225-12.9389-25.1372-12.839-25.1505-12.7364-25.1572-12.6432-25.1572-12.5566-25.1572-11.6335-24.3793-10.0085-22.8195-7.68554-21.2611-5.36123-18.6771-1.58772-15.0687 3.63631-15.82 3.60834-16.4047 3.72955-16.823 4.00527-17.2412 4.27966-17.5795 4.57536-17.8406 4.89238-17.8992 4.97895-17.9551 5.05887-18.0137 5.1308-18.071 5.20273-18.1296 5.28265-18.1856 5.37056-18.8223 6.29362-19.2258 6.92099-19.3977 7.25398-19.5722 7.58431-19.6587 7.83739-19.6587 8.01188-19.6587 8.18371-19.6214 8.31424-19.5495 8.40082-19.4789 8.4874-19.3977 8.55933-19.3124 8.61793-19.2831 8.61793-19.2552 8.62459-19.2258 8.63791-19.1979 8.65256-19.1672 8.65922-19.1393 8.65922L-19.074 8.65922-19.0087 8.65922-18.9435 8.65922-18.8782 8.65922-18.7916 8.65922C-18.6771 8.63125-18.5705 8.60195-18.468 8.57265-18.3681 8.54467-18.2588 8.50072-18.1443 8.44344-17.9698 8.38484-17.79 8.33555-17.6008 8.2916-17.4144 8.24897-17.2052 8.22766-16.9735 8.22766-16.454 8.22766-15.9065 8.33555-15.3285 8.55267-14.7517 8.76845-14.1736 9.06548-13.5969 9.43977-13.0481 9.75678-12.5007 10.1324-11.9506 10.5653-11.4031 10.9982-10.8836 11.4457-10.3935 11.9079-9.87399 12.3395-9.39581 12.7737-8.96425 13.2066-8.53135 13.6408-8.14108 14.0298-7.79477 14.3748-7.04353 15.126-6.5174 15.6455-6.2137 15.9345-5.91134 16.2236-5.68757 16.3674-5.54238 16.3674-5.51441 16.3674-5.47712 16.3514-5.43582 16.3235-5.39187 16.2955-5.35591 16.2515-5.3266 16.1956-5.24002 16.0784-5.1601 15.8759-5.08818 15.5869-5.01625 15.3005-4.99494 14.8809-5.02291 14.3321L-5.02291 14.0071-5.02291 13.6821C-5.05354 12.5846-5.30529 11.3725-5.78081 10.0458-6.25766 8.71783-7.91065 7.02754-10.7385 4.97895-11.0861 4.72055-11.4098 4.48212-11.7135 4.26501-12.0158 4.04923-12.2982 3.82546-12.5566 3.59369-12.7311 3.44984-12.9043 3.30465-13.0761 3.1608-13.2506 3.01694-13.4237 2.8571-13.5969 2.68528-14.4054 1.90474-15.3218 0.808514-16.3461-0.606052-17.3717-2.02062-18.9808-4.30097-21.1745-7.44712-19.2112-6.23501-17.5009-5.13746-16.0437-4.15579-14.5866-3.17545-13.2066-2.2071-11.9079-1.25606-11.792-1.19745-11.6842-1.13352-11.5829-1.06026-11.4817-0.988332-11.3885-0.909745-11.3019-0.823166-11.0128-0.620704-10.7385-0.426235-10.48-0.238425-10.219-0.0506154-9.94592 0.143854-9.65688 0.347648-0.76589 6.8131 5.69956 10.9249 9.7408 12.6871 13.7834 14.4467 16.5832 15.3285 18.1416 15.3285 19.0647 15.3285 19.8945 15.0328 20.6311 14.44 21.3677 13.8486 21.7366 12.9176 21.7366 11.6482 21.7366 11.0994 21.6634 10.5213 21.5195 9.91528 21.3743 9.30923 21.1719 8.71783 20.9135 8.13975 19.8452 5.8594 17.7367 3.76019 14.5919 1.8408 11.4457-0.079919 7.18605-1.09755 1.81816-1.2121 4.55938-5.94597 7.22335-9.21599 9.80606-11.0182 12.3888-12.8243 14.6199-13.7248 16.4966-13.7248 18.2282-13.7248 19.6947-13.2066 20.8922-12.1677 22.0883-11.1274 22.6877-9.72748 22.6877-7.96659 22.6877-7.73616 22.681-7.51239 22.6664-7.29527 22.6517-7.07949 22.6157-6.86904 22.5585-6.66924 22.5292-6.52405 22.4932-6.38686 22.4492-6.25633 22.408-6.12579 22.384-5.98993 22.384-5.84608 22.384-5.67159 22.4213-5.54238 22.4932-5.45447 22.5665-5.36789 22.6451-5.31195 22.7316-5.28265 22.7596-5.25334 22.7902-5.24002 22.8182-5.24002L22.9048-5.24002C23.2511-5.24002 23.5108-5.53572 23.6853-6.12579 23.8572-6.71852 23.9437-7.50573 23.9437-8.4874 23.9437-8.71783 23.9371-8.94827 23.9224-9.1787 23.9064-9.41046 23.8718-9.6409 23.8132-9.87133 23.4962-11.4897 22.5518-12.9669 20.9787-14.3095 19.4057-15.6521 16.9721-16.3235 13.6821-16.3235 10.1311-16.3235 7.09281-15.415 4.56737-13.5969 2.04193-11.7787 5.91519e-16-9.77143-1.55975-7.57765-2.05125-6.88369-2.48948-6.20704-2.88108-5.54238-3.27002-4.87906-3.60968-4.22905-3.89738-3.59369-3.95599-3.44984-4.01327-3.29799-4.07054-3.13949-4.13048-2.98098-4.15845-2.81315-4.15845-2.64132-4.15845-2.49614-4.12116-2.37493-4.04923-2.27236-3.97597-2.17247-3.86941-2.07923-3.72423-1.99132Z" fill="#1A1A18" fill-rule="nonzero" fill-opacity="1" transform="matrix(1 0 0 -1.00519 485.308 357.738)"/><path d="M0 0C-1.06825-0.764558-1.73158-1.61037-1.99132-2.53343-2.04859-2.67862-2.08589-2.81315-2.10054-2.94368-2.11386-3.07422-2.12185-3.21141-2.12185-3.3566-2.12185-3.96265-1.95535-4.40354-1.62236-4.67659-1.29202-4.95098-0.923065-5.11615-0.519474-5.17476-0.462198-5.20273-0.396931-5.21738-0.323672-5.21738L-0.130534-5.21738C0.130534-5.21738 0.440887-5.14678 0.801854-5.0016 1.16149-4.85774 1.54377-4.6686 1.94869-4.43817 2.23773-4.26501 2.51745-4.0772 2.79317-3.87607 3.06756-3.67361 3.3193-3.47115 3.54974-3.27002 3.83878-3.00895 4.07054-2.75721 4.2437-2.51079 4.41686-2.2657 4.50344-2.05658 4.50344-1.88342 4.50344-1.82482 4.49678-1.77553 4.48212-1.73158 4.46614-1.68762 4.44483-1.63834 4.41686-1.57973 4.38755-1.49449 4.33827-1.40791 4.26501-1.32133 4.19308-1.23342 4.12782-1.14684 4.07054-1.06026 3.95599-0.888433 3.84677-0.715275 3.74554-0.540785 3.64297-0.367627 3.59369-0.151846 3.59369 0.107891 3.59369 0.251745 3.615 0.403591 3.65896 0.562097 3.70158 0.720603 3.7815 0.901753 3.89738 1.10421 2.3656 1.13352 1.06825 0.764558 0 0M8.22766-9.3745C8.19836-9.3745 8.17039-9.38249 8.13975-9.39581 8.11178-9.41046 8.08114-9.41712 8.05317-9.41712 7.73616-9.64756 7.38185-9.84336 6.99291-10.0019 6.60397-10.1604 6.11913-10.2403 5.54238-10.2403 5.02291-10.2403 4.62731-10.1257 4.35159-9.8953 4.0772-9.66221 3.88273-9.43177 3.76685-9.20001 3.70824-9.05749 3.67361-8.92029 3.65896-8.78976 3.64297-8.65922 3.63765-8.55267 3.63765-8.46609 3.63765-8.20502 3.67361-7.95327 3.74554-7.70819 3.81746-7.4631 3.9107-7.238 4.02792-7.03687 4.17044-6.74783 4.29431-6.51074 4.39555-6.32159 4.49678-6.13512 4.60333-5.96862 4.72055-5.82343 4.77782-5.76616 4.82045-5.71554 4.85108-5.67159 4.87906-5.62896 4.92035-5.57835 4.97895-5.51974 4.97895-5.49177 4.98561-5.47046 5.0016-5.45714 5.01625-5.44248 5.03756-5.41984 5.06686-5.39187 5.12414-5.33326 5.17476-5.26799 5.21871-5.19607 5.26133-5.12414 5.31195-5.0602 5.37056-5.0016 5.51308-4.79914 5.63562-4.59001 5.73685-4.3729 5.83942-4.15579 5.918-3.93468 5.97661-3.70158L5.97661-3.59369 5.97661-3.48447C5.97661-3.25404 5.918-3.03959 5.80212-2.83712 5.68757-2.63333 5.47046-2.44685 5.15344-2.27236 4.89238-2.5614 4.64063-2.8651 4.39555-3.18211 4.14913-3.50045 3.88273-3.81746 3.59369-4.13448 2.64132-5.23336 1.63168-6.28696 0.563429-7.29527-0.506154-8.30758-1.58772-9.07214-2.68528-9.59161-3.11684-9.79274-3.54308-9.95125-3.96265-10.0671-4.37956-10.1817-4.8058-10.2403-5.24002-10.2403-6.30694-10.2403-7.03554-9.91528-7.42581-9.26528-7.81608-8.61793-8.0252-7.88801-8.05317-7.07949L-8.05317-7.01422-8.05317-6.94896C-8.05317-6.48942-7.98125-6.01124-7.83739-5.51974-7.6922-5.02957-7.49108-4.52475-7.23134-4.00527-6.42416-2.50546-5.09484-1.11887-3.24738 0.151846-1.40125 1.42123 0.780542 2.05658 3.29133 2.05658L3.87607 2.05658C4.06255 2.05658 4.25835 2.04193 4.45948 2.01396 4.57536 2.27236 4.70457 2.50413 4.85108 2.70659 4.99361 2.90772 5.12414 3.08088 5.24002 3.22606 5.64361 3.65896 6.01124 3.9107 6.34424 3.98396 6.6759 4.05589 6.86904 4.09052 6.92765 4.09052 7.38984 4.09052 7.74282 3.94001 7.98791 3.63631 8.23299 3.33395 8.35686 2.93702 8.35686 2.44685 8.35686 2.15781 8.3209 1.88342 8.24897 1.62502 8.17705 1.36395 8.08114 1.13352 7.96659 0.929724 7.90932 0.757899 7.84405 0.612712 7.77346 0.498162 7.69886 0.382279 7.64958 0.310352 7.62161 0.28238 7.70819 0.251745 7.80143 0.217113 7.90133 0.173158 8.00256 0.130534 8.11178 0.0932388 8.22766 0.0652672 8.63125-0.165166 9.01353-0.491502 9.3745-0.909745 9.73547-1.32799 9.91528-1.91273 9.91528-2.66263L9.91528-3.18211C9.91528-3.3566 9.90197-3.5151 9.87133-3.65896 9.87133-3.74554 9.85801-3.83212 9.83004-3.9187 9.7994-4.00527 9.78475-4.09052 9.78475-4.17976 9.72748-4.35159 9.68485-4.52475 9.65688-4.69924 9.62624-4.87106 9.61292-5.0602 9.61292-5.26133L9.61292-5.39187 9.61292-5.56369C9.6409-5.68091 9.67819-5.78081 9.72081-5.86739 9.76477-5.95397 9.85801-5.99792 10.0019-5.99792 10.147-5.99792 10.2683-5.98327 10.3708-5.95397 10.4707-5.92466 10.5799-5.89669 10.6945-5.86739L14.8529-3.9187C14.9955-3.86142 15.1114-3.80414 15.1979-3.74554 15.2845-3.68693 15.3857-3.65896 15.5003-3.65896 15.5296-3.63099 15.5589-3.615 15.5869-3.615L15.6748-3.615C15.7614-3.615 15.8266-3.63099 15.8693-3.65896 15.9132-3.68693 15.9345-3.73222 15.9345-3.78816 15.9625-3.81746 15.9785-3.83878 15.9785-3.85343L15.9785-3.9187C15.9785-4.03458 15.9132-4.14913 15.7827-4.26501 15.6521-4.37956 15.459-4.52475 15.1979-4.69924Z" fill="#1A1A18" fill-rule="nonzero" fill-opacity="1" transform="matrix(1 0 0 -1.00519 517.306 363.113)"/><path d="M0 0C-0.189142-0.189142-0.354308-0.354308-0.498162-0.49683-0.612712-0.584741-0.729927-0.685971-0.844478-0.800522-0.96036-0.916405-1.11887-1.08823-1.32133-1.32-1.52246-1.52246-1.73957-1.74623-1.97-1.99132-2.20177-2.23773-2.44685-2.47483-2.70659-2.70659-3.48447-3.4565-4.35159-4.12782-5.30529-4.72055-6.25633-5.31062-7.2673-5.60632-8.33555-5.60632-9.28792-5.60632-10.0178-5.25334-10.5213-4.54606-11.0275-3.83878-11.3378-3.03692-11.4524-2.14183-11.4817-2.02728-11.4963-1.9114-11.4963-1.79685L-11.4963-1.45053C-11.4963 0.540785-10.8037 2.17913-9.41712 3.46449-8.03186 4.74852-6.5174 5.75284-4.87106 6.47344-3.54308 7.05152-2.29634 7.46976-1.12553 7.7295 0.0439555 7.98791 0.872449 8.11844 1.36395 8.11844 1.53578 8.11844 1.66631 8.09047 1.75289 8.03186 1.83947 7.97459 1.9114 7.90133 1.97 7.81608 1.97 7.78811 1.97666 7.75747 1.99132 7.7295 2.00464 7.69886 2.01396 7.67089 2.01396 7.64292 2.01396 7.38185 1.87676 7.19537 1.60104 7.07949 1.32666 6.96494 1.0163 6.87836 0.67132 6.81976 0.584741 6.81976 0.498162 6.8131 0.410251 6.79844 0.323672 6.78379 0.238425 6.7758 0.151846 6.7758-1.78353 6.48676-3.34195 5.8887-4.52475 4.97895-5.70888 4.07054-6.30028 3.06756-6.30028 1.97-6.30028 1.2494-6.08317 0.67132-5.65027 0.238425-5.21738-0.193138-4.72721-0.410251-4.17976-0.410251-3.74554-0.410251-3.31264-0.323672-2.87842-0.151846-2.44685 0.0213117-2.01396 0.238425-1.58106 0.498162-1.14684 0.757899-0.729927 1.04694-0.323672 1.36395 0.079919 1.68096 0.482178 2.01396 0.888433 2.36027 1.00298 2.44685 1.12553 2.54808 1.25606 2.66397 1.38526 2.77852 1.52246 2.8944 1.66631 3.00895 1.92738 3.78949 2.40956 4.97229 3.11684 6.56002 3.82546 8.14641 4.61133 9.80873 5.47712 11.5403 5.76482 12.1157 6.06319 12.6871 6.36555 13.2492 6.66924 13.8127 6.96228 14.3535 7.25132 14.8743 8.20502 16.5472 9.11476 17.9764 9.98055 19.1606 10.8463 20.3447 11.5523 20.9361 12.1024 20.9361 12.478 20.9361 12.795 20.683 13.0548 20.1782 13.3145 19.6734 13.445 18.6851 13.445 17.2119 13.445 16.5193 13.3864 15.8759 13.2706 15.2845 13.156 14.6918 12.9535 14.095 12.6645 13.489 12.2023 12.478 11.503 11.4244 10.564 10.3282 9.62624 9.23065 8.3915 7.93063 6.86238 6.43082 5.6223 5.21871 4.75518 4.273 4.26501 3.59369 3.77351 2.91571 3.52842 2.37493 3.52842 1.97 3.52842 1.85545 3.54974 1.73957 3.59369 1.62502 3.63631 1.50781 3.68693 1.37727 3.74554 1.23475 4.00527 0.829826 4.41686 0.440887 4.97895 0.0652672 5.54238-0.310352 6.14044-0.612712 6.7758-0.844478 7.09281-0.96036 7.40316-1.0536 7.70686-1.12553 8.00922-1.19745 8.2916-1.23342 8.55267-1.23342 9.21466-1.23342 9.78475-1.08157 10.2616-0.77921 10.7385-0.475518 11.1634-0.137194 11.539 0.238425 11.6549 0.354308 11.7787 0.475518 11.9066 0.606052 12.0371 0.736587 12.161 0.857797 12.2756 0.97368 12.3914 1.06026 12.4913 1.12553 12.5779 1.16948 12.6645 1.2121 12.7364 1.23475 12.795 1.23475 12.9096 1.20544 12.9908 1.1535 13.0321 1.0829 13.0761 1.00964 13.0974 0.932388 13.0974 0.844478 13.0974 0.78587 13.0907 0.729927 13.0761 0.67132 13.0601 0.612712 13.0401 0.555437 13.0108 0.498162 12.9828 0.468858 12.9455 0.426235 12.9043 0.367627 12.8603 0.310352 12.823 0.266397 12.795 0.238425 12.7671 0.179818 12.7364 0.137194 12.7085 0.109223 12.6778 0.079919 12.6498 0.0506154 12.6219 0.0213117L11.1927-1.57973C10.2123-2.64798 9.18669-3.615 8.11844-4.48079 7.05152-5.34791 5.83675-5.78081 4.48212-5.78081 3.44318-5.78081 2.53876-5.46912 1.77553-4.84842 1.00964-4.22905 0.627364-3.34061 0.627364-2.18712 0.627364-2.01396 0.634024-1.83947 0.650008-1.66631 0.66466-1.49449 0.67132-1.32 0.67132-1.14684 0.699291-0.916405 0.727263-0.685971 0.757899-0.454206 0.78587-0.223773 0.815174-0.00665992 0.844478 0.195802 0.872449 0.367627 0.901753 0.527465 0.929724 0.67132 0.959028 0.815174 0.988332 0.932388 1.0163 1.01897 0.526133 0.527465 0.186478 0.189142 0 0" fill="#1A1A18" fill-rule="nonzero" fill-opacity="1" transform="matrix(1 0 0 -1.00519 544.78 368.162)"/><path d="M0 0C0.143854 0.114551 0.28904 0.195802 0.432895 0.238425 0.578081 0.28238 0.721935 0.303692 0.867121 0.303692 1.18413 0.303692 1.45719 0.195802 1.69029-0.0213117 1.92072-0.238425 2.03527-0.506154 2.03527-0.823166 2.03527-1.02563 1.98599-1.19079 1.88342-1.32133 1.78353-1.45053 1.6743-1.57307 1.55975-1.69029 1.55975-1.71826 1.5451-1.73158 1.5158-1.73158 1.40125-1.84879 1.30002-1.96334 1.2121-2.07923 1.12553-2.19378 1.0829-2.33763 1.0829-2.51079 1.0829-2.5694 1.11887-2.64132 1.19079-2.7279 1.26272-2.81315 1.35729-2.88774 1.47317-2.94368 1.53045-3.00229 1.58772-3.05291 1.645-3.09553 1.70361-3.13949 1.77553-3.17678 1.86211-3.20475 1.97666-3.26336 2.08589-3.32863 2.18712-3.39922 2.28835-3.47115 2.38159-3.53642 2.46817-3.59369 2.81581-3.88273 3.11817-4.25169 3.37791-4.69924 3.63765-5.14678 3.8108-5.61564 3.89738-6.10448 3.95599-6.27897 3.99062-6.45213 4.00661-6.62529 4.01993-6.79711 4.02792-6.95828 4.02792-7.10214 4.02792-7.56433 3.87607-8.1251 3.57371-8.78976 3.27002-9.45442 2.8571-10.1324 2.33763-10.825 1.70361-11.7201 0.932388-12.5633 0.0226437-13.3585-0.888433-14.1537-1.81816-14.765-2.77186-15.1979-3.14614-15.3418-3.52176-15.4657-3.89738-15.5656-4.273-15.6668-4.63131-15.7174-4.97895-15.7174-5.78747-15.7174-6.51473-15.4284-7.16607-14.8529-7.81608-14.2749-8.13975-13.4517-8.13975-12.3848-8.13975-11.6335-7.95327-11.0342-7.57765-10.5866-7.20203-10.1391-6.78379-9.85801-6.32159-9.74346-6.23501-9.71549-6.14844-9.69151-6.06052-9.67819-5.97395-9.66354-5.8887-9.65555-5.80212-9.65555-5.22404-9.65555-4.82045-9.80073-4.59001-10.0884-4.35825-10.3775-4.15579-10.7385-3.98396-11.1713-3.98396-11.2006-3.97597-11.222-3.96132-11.2366-3.94667-11.2513-3.94001-11.2726-3.94001-11.3005-3.9107-11.3885-3.86675-11.4963-3.80947-11.6269-3.7522-11.7548-3.69492-11.8919-3.63631-12.0371-3.49246-12.2676-3.33395-12.4847-3.1608-12.6871-2.98631-12.8896-2.77186-12.9908-2.51079-12.9908-2.3656-12.9908-2.20044-12.9535-2.01263-12.8816-1.82482-12.811-1.645-12.7151-1.47051-12.6006-1.06825-12.3395-0.699291-11.9879-0.367627-11.5403-0.0346316-11.0928 0.158506-10.6386 0.217113-10.175 0.245085-10.1177 0.261069-10.0605 0.261069-10.0019L0.261069-9.83004C0.261069-9.68485 0.245085-9.54766 0.217113-9.41712 0.189142-9.28792 0.143854-9.15073 0.0865789-9.00687-0.0865789-8.60328-0.354308-8.19037-0.713943-7.77212-1.07491-7.35388-1.45719-6.9716-1.86078-6.62529-2.06324-6.42416-2.2657-6.24167-2.46817-6.08317-2.66929-5.92466-2.8571-5.77415-3.03026-5.62896L-6.40817-7.88135C-6.43614-7.90932-6.47344-7.93862-6.51473-7.96659-6.56002-7.99723-6.61063-8.0252-6.66658-8.05317-6.69721-8.05317-6.73184-8.06916-6.7758-8.09713-6.81842-8.1251-6.85572-8.13975-6.88369-8.13975-6.9423-8.17039-6.99291-8.19037-7.03554-8.20502-7.07949-8.221-7.13011-8.22633-7.18605-8.22633-7.30327-8.22633-7.3965-8.19037-7.46843-8.11844-7.54036-8.04651-7.57765-7.95327-7.57765-7.83739L-7.57765-7.75081C-7.57765-7.72284-7.56167-7.69354-7.5337-7.66423-7.50573-7.60563-7.44046-7.5337-7.3379-7.44712-7.238-7.36054-7.1008-7.24599-6.92765-7.10214L-4.02525-4.67659C-4.11183-4.61932-4.18642-4.54739-4.24237-4.45948-4.30097-4.3729-4.34493-4.28632-4.3729-4.19974-4.40087-4.1145-4.41553-4.04124-4.41553-3.98396L-4.41553-3.8108C-4.41553-3.72423-4.40087-3.64564-4.3729-3.57371-4.34493-3.50045-4.30097-3.44984-4.24237-3.42187Z" fill="#1A1A18" fill-rule="nonzero" fill-opacity="1" transform="matrix(1 0 0 -1.00519 566.018 357.825)"/><path d="M0 0C0.0279717 0.0279717 0.0506154 0.0492834 0.0652672 0.0652672 0.079919 0.079919 0.0998988 0.0998988 0.130534 0.130534 0.388939 0.303692 0.715275 0.475518 1.10421 0.648676 1.49449 0.823166 1.89008 0.909745 2.29634 0.909745 2.61335 0.909745 2.84378 0.79253 2.98764 0.562097 3.13283 0.331664 3.23272 0.0719271 3.29133-0.217113 3.3193-0.332996 3.33529-0.447546 3.33529-0.563429L3.33529-0.867121C3.33529-1.73158 3.23272-2.80782 3.03159-4.09318 2.82913-5.37722 2.29634-7.4338 1.42922-10.2629L3.63765-6.79844C3.63765-6.76914 3.64297-6.74783 3.65896-6.73451 3.67361-6.71986 3.69492-6.69721 3.72423-6.66924 4.99361-4.64729 6.36555-2.78518 7.83739-1.0829 9.30923 0.620704 10.9835 1.47051 12.8603 1.47051 12.9762 1.47051 13.1906 1.45719 13.5103 1.42922 13.8273 1.39858 14.1603 1.29868 14.5053 1.12553 14.9395 0.951036 15.3285 0.640684 15.6748 0.193138 16.0211-0.253077 16.1956-0.924397 16.1956-1.81816 16.1956-2.22308 16.1436-2.63333 16.0437-3.05291 15.9412-3.47115 15.8186-3.88273 15.6748-4.28632 15.126-5.61564 14.2749-6.89301 13.12-8.11844 11.9652-9.34653 10.7531-10.3495 9.48239-11.1274 8.76179-11.5616 8.04651-11.8999 7.34056-12.1464 6.63195-12.3914 5.98993-12.514 5.41185-12.514 5.12414-12.514 4.87106-12.4421 4.65528-12.2982 4.43817-12.153 4.28632-11.9652 4.19974-11.7334 4.17177-11.6482 4.14913-11.5616 4.13448-11.475 4.12116-11.3885 4.1145-11.3019 4.1145-11.214 4.1145-11.1274 4.12116-11.0342 4.13448-10.9343 4.14913-10.8317 4.17177-10.7251 4.19974-10.6079 4.22905-10.5213 4.24903-10.4214 4.26501-10.3056 4.27966-10.191 4.30097-10.0738 4.33028-9.95924 4.41686-9.64223 4.5687-9.34653 4.78582-9.07214 5.0016-8.79642 5.33992-8.65922 5.80212-8.65922 5.8594-8.65922 5.96729-8.67521 6.12712-8.70318 6.28696-8.73115 6.53871-8.78976 6.88502-8.87634 6.99957-8.90564 7.11679-8.9416 7.23134-8.98556 7.34722-9.02818 7.44712-9.06415 7.5337-9.09345 7.79477-9.20933 8.03985-9.30257 8.27029-9.3745 8.50072-9.44776 8.71783-9.48239 8.92029-9.48239 9.06415-9.48239 9.208-9.46108 9.35319-9.41712 9.49704-9.3745 9.6409-9.30923 9.78475-9.22399 10.2776-8.99222 10.7171-8.55933 11.1074-7.9253 11.4963-7.28861 11.6922-6.49608 11.6922-5.54238 11.6922-4.87906 11.555-4.35825 11.2792-3.98396 11.0048-3.60834 10.7105-3.34994 10.3921-3.20475 10.2469-3.14614 10.1177-3.10485 10.0019-3.07422 9.88731-3.04625 9.77143-3.03026 9.65688-3.03026 9.0788-3.03026 8.45809-3.21141 7.79477-3.57371 7.13011-3.93468 6.45213-4.51942 5.7595-5.3266 5.38388-5.78747 5.0016-6.32825 4.61266-6.95029 4.22106-7.57099 3.83878-8.28627 3.46449-9.09345 3.20475-9.64223 2.94368-10.2563 2.68528-10.9343 2.42421-11.6122 2.17913-12.3262 1.94869-13.0761 1.80351-13.5103 1.65299-13.9645 1.49449-14.44 1.33598-14.9182 1.18413-15.4004 1.03895-15.8919 0.261069-18.2588-0.571421-20.4233-1.45053-22.3866-2.33097-24.3487-3.37791-25.3303-4.59001-25.3303-4.67659-25.3303-4.77782-25.3157-4.89238-25.2877-5.00959-25.2584-5.12414-25.2304-5.24002-25.1998-5.55703-25.0559-5.84608-24.8042-6.10448-24.4419-6.36422-24.0809-6.49475-23.5841-6.49475-22.9487-6.49475-22.2281-6.19772-21.0573-5.60632-19.4416-5.01625-17.8246-3.33395-15.2699-0.562097-11.7787-0.534125-11.4311-0.512814-11.0714-0.49683-10.6945-0.482178-10.3215-0.475518-9.94592-0.475518-9.56897-0.447546-9.05083-0.432895-8.53801-0.432895-8.03186L-0.432895-6.66924C-0.432895-6.52405-0.440887-6.37221-0.454206-6.2137-0.468858-6.0552-0.475518-5.90468-0.475518-5.7595-0.562097-5.2973-0.721935-4.88572-0.951036-4.52475-1.18413-4.16511-1.58772-3.98396-2.16581-3.98396-2.3656-3.98396-2.62667-4.04124-2.94368-4.15579-3.2607-4.273-3.66695-4.48878-4.15579-4.8058-4.50344-5.00959-4.75518-5.1601-4.91369-5.26133-5.07219-5.36257-5.22404-5.41185-5.36789-5.41185L-5.43316-5.41185-5.49843-5.41185C-5.55703-5.38388-5.60632-5.34791-5.65027-5.30529-5.69423-5.26133-5.73019-5.21205-5.75816-5.15344-5.78747-5.12547-5.80212-5.09484-5.80212-5.06686L-5.80212-4.97895C-5.80212-4.89238-5.78081-4.82711-5.73685-4.78582-5.69423-4.74053-5.64361-4.69125-5.58501-4.63397-5.55703-4.606-5.51974-4.57536-5.47712-4.54739-5.43316-4.51942-5.39853-4.48878-5.36789-4.46081Z" fill="#1A1A18" fill-rule="nonzero" fill-opacity="1" transform="matrix(1 0 0 -1.00519 578.012 360.48)"/><path d="M0 0C0.173158-0.0865789 0.317012-0.186478 0.431563-0.303692 0.49017-0.331664 0.540785-0.367627 0.583409-0.410251 0.627364-0.454206 0.661996-0.49017 0.692631-0.519474 1.09622-0.895093 1.47051-1.22676 1.81816-1.5158 2.16314-1.80351 2.51079-2.04859 2.8571-2.25105 3.17545-2.45218 3.50578-2.59737 3.85343-2.68395 4.19841-2.77186 4.57403-2.81315 4.97895-2.81315 5.26666-2.81315 5.50642-2.79983 5.6929-2.77186 5.88071-2.74122 6.0472-2.71325 6.19106-2.68395 6.39219-2.62667 6.53871-2.58272 6.62395-2.55474 6.71053-2.52677 6.75316-2.54009 6.75316-2.59737 6.75316-2.71325 6.68123-2.89307 6.53871-3.13815 6.39219-3.38457 6.1471-3.6523 5.80212-3.94001 5.48244-4.19974 5.10016-4.43817 4.65262-4.65528 4.20507-4.86973 3.65097-5.05088 2.98631-5.19607 2.69727-7.36054 1.55709-9.33054-0.432895-11.1047-2.42554-12.8816-4.57536-13.7687-6.88502-13.7687-8.3582-13.7687-9.57696-13.3491-10.5453-12.5127-11.5123-11.6762-11.9945-10.5213-11.9945-9.0495-11.9945-7.40316-11.4604-5.95397-10.3935-4.69657-9.32522-3.44051-8.15574-2.41089-6.88502-1.60104-6.02057-1.08157-5.19074-0.66466-4.39555-0.344984-3.60168-0.0279717-2.97432 0.158506-2.51212 0.217113L-2.44685 0.217113-2.38159 0.217113-2.29634 0.217113C-2.18179 0.217113-2.08589 0.195802-2.01396 0.151846-1.94336 0.109223-1.89275 0.0586073-1.86211 0L-1.86211-0.0865789C-1.86211-0.28904-1.94869-0.447546-2.12318-0.562097-2.29634-0.67798-2.4988-0.77921-2.72923-0.864457-2.75721-0.895093-2.7945-0.916405-2.83712-0.929724-2.88108-0.945708-2.91571-0.951036-2.94635-0.951036-3.58037-1.18413-4.13048-1.43588-4.59135-1.70893-5.05354-1.98332-5.45714-2.2657-5.80345-2.55474-6.55469-3.18877-7.00224-3.80414-7.14476-4.39421-7.28995-4.98561-7.36054-5.39853-7.36054-5.62896-7.36054-5.77415-7.34722-5.92466-7.31925-6.08317-7.28995-6.24167-7.24599-6.39352-7.18871-6.53871-6.92898-7.20203-6.43748-7.80143-5.71554-8.33555-4.99494-8.86968-4.05722-9.13474-2.90239-9.13474-1.77553-9.13474-0.752571-8.79642 0.173158-8.11844 1.09622-7.44046 1.71559-6.4801 2.03527-5.23869 1.80217-5.29597 1.50647-5.33992 1.14684-5.36789 0.78587-5.39853 0.344984-5.41185-0.17449-5.41185-0.28904-5.41185-0.432895-5.40519-0.607384-5.3892-0.780542-5.37589-0.939048-5.33992-1.0829-5.28265-1.42922-5.19607-1.74756-5.04422-2.0366-4.82711-2.32431-4.61133-2.46817-4.28632-2.46817-3.85343-2.46817-3.6523-2.43353-3.38457-2.36027-3.05157-2.28835-2.71991-2.19511-2.3656-2.07923-1.99132-1.90607-1.47051-1.69029-0.988332-1.42922-0.540785-1.16948-0.0932388-0.895093 0.130534-0.607384 0.130534-0.376951 0.130534-0.17449 0.0865789 0 0" fill="#1A1A18" fill-rule="nonzero" fill-opacity="1" transform="matrix(1 0 0 -1.00519 607.501 359.915)"/><path d="M0 0C-0.0293036 0-0.0506154-0.00932388-0.0652672-0.0226437-0.079919-0.0372955-0.102563-0.0586073-0.130534-0.0865789-0.158506-0.0865789-0.189142-0.102563-0.217113-0.130534-0.246417-0.159838-0.28904-0.17449-0.347648-0.17449-0.404923-0.202461-0.47019-0.233097-0.540785-0.261069-0.612712-0.28904-0.67798-0.303692-0.736587-0.303692L-0.823166-0.303692C-0.880441-0.274389-0.932388-0.233097-0.97368-0.17449-1.01897-0.115883-1.03895-0.0586073-1.03895 0-1.03895 0.114551-1.01897 0.207789-0.97368 0.279717-0.932388 0.352976-0.880441 0.416911-0.823166 0.475518-0.795194 0.50349-0.764558 0.534125-0.736587 0.562097L1.25606 2.42421C1.22676 2.45218 1.19745 2.48282 1.16815 2.51079 1.14018 2.53876 1.10954 2.5694 1.08157 2.59737 1.0536 2.65464 1.0243 2.71325 0.994992 2.77186 0.96702 2.8278 0.951036 2.88641 0.951036 2.94368 0.951036 3.08887 1.04428 3.27535 1.23342 3.50578 1.42123 3.73755 1.71559 4.03991 2.12185 4.41553L4.54606 6.58C4.66194 6.69721 4.8058 6.79711 4.97895 6.88369 5.15211 6.97027 5.33992 7.0422 5.54238 7.1008 5.65693 7.12878 5.77148 7.15808 5.8887 7.18605 6.00325 7.21535 6.11913 7.23134 6.23501 7.23134L6.30028 7.23134C6.31493 7.23134 6.32159 7.21535 6.32159 7.18605 6.34957 7.18605 6.38686 7.17273 6.42948 7.14476 6.47344 7.11412 6.49475 7.08615 6.49475 7.05818 6.52272 7.02754 6.54537 6.99291 6.56002 6.94896 6.57334 6.90633 6.56668 6.85572 6.53871 6.79711L6.53871 6.71053C6.53871 6.68123 6.53071 6.65992 6.5174 6.64527 6.50141 6.63195 6.49475 6.6093 6.49475 6.58 6.46545 6.52272 6.42948 6.47344 6.38686 6.42948 6.34291 6.38686 6.30561 6.33625 6.27764 6.27764 6.24967 6.24967 6.21237 6.21237 6.16975 6.16975 6.12579 6.12579 6.07651 6.0885 6.0179 6.06052 5.96063 6.00325 5.91667 5.94597 5.8887 5.8887 5.8594 5.83009 5.84608 5.75816 5.84608 5.67159 5.84608 5.5557 5.96729 5.45447 6.21237 5.36789 6.45746 5.28265 6.85572 5.23736 7.40316 5.23736L7.75081 5.23736 8.05317 5.23736 8.22633 5.23736C8.28494 5.23736 8.34221 5.25201 8.40082 5.28265L8.91896 5.28265 9.48239 5.28265C10.3775 5.28265 10.9462 5.21738 11.1927 5.08684 11.4377 4.95764 11.5616 4.74852 11.5616 4.45948L11.5616 4.19974C11.5616 4.11183 11.5456 4.01193 11.5177 3.89738 11.5177 3.83744 11.5097 3.77351 11.4963 3.70158 11.4804 3.62965 11.4591 3.56439 11.4311 3.50578 11.4004 3.33395 11.3658 3.17545 11.3219 3.03026 11.2792 2.88641 11.2006 2.75587 11.0834 2.64132 10.9982 2.52411 10.881 2.40823 10.7385 2.29368 10.5919 2.17913 10.3921 2.04859 10.1324 1.90474 9.8993 1.75955 9.65555 1.60904 9.39581 1.45053 9.13474 1.29202 8.87634 1.10954 8.61527 0.909745 8.27029 0.648676 7.93729 0.382279 7.62028 0.107891 7.30327-0.16783 7.02754-0.432895 6.79711-0.693963 6.59465-0.924397 6.43614-1.15616 6.32159-1.38659 6.20571-1.61703 6.14844-1.83414 6.14844-2.03527 6.14844-2.6986 6.50807-3.32863 7.23134-3.9187 7.95194-4.5101 8.7458-4.85108 9.61292-4.93633 9.66887-4.9643 9.73413-4.98029 9.80606-4.98029L10.0445-4.98029C10.1883-4.98029 10.3335-4.9643 10.4774-4.93633 10.6226-4.90836 10.7664-4.87906 10.9116-4.85108 11.2579-4.73653 11.5962-4.5687 11.9292-4.35159 12.2609-4.13448 12.5713-3.92669 12.8603-3.72423 13.0907-3.5524 13.2985-3.37791 13.4877-3.20475 13.6755-3.03159 13.8406-2.88774 13.9858-2.77186 14.1297-2.62667 14.2589-2.53343 14.3748-2.48948 14.4893-2.44685 14.5919-2.44019 14.6785-2.46817 14.765-2.46817 14.829-2.4988 14.8743-2.55474 14.9156-2.61335 14.9395-2.67063 14.9395-2.72923 14.9395-2.81581 14.9156-2.90239 14.8743-2.98764 14.829-3.07422 14.7784-3.1608 14.7224-3.24871 14.6918-3.27668 14.6705-3.29799 14.6571-3.31264 14.6412-3.32863 14.6199-3.34994 14.5919-3.37791 14.3614-3.63765 13.9858-4.01327 13.4664-4.50344 12.9455-4.99494 12.3541-5.49843 11.6895-6.0179 11.3445-6.30694 10.9835-6.59598 10.6079-6.88502 10.2323-7.17406 9.85801-7.4338 9.48239-7.66423 8.87634-8.01188 8.2916-8.30758 7.7295-8.55267 7.16607-8.79642 6.63861-8.92029 6.14844-8.92029 5.97395-8.92029 5.80212-8.90564 5.62896-8.87634 5.45447-8.84837 5.28265-8.80441 5.10949-8.74714 4.44483-8.51537 3.83878-8.10512 3.29133-7.51239 2.74122-6.92232 2.46817-6.14844 2.46817-5.19607 2.46817-4.33028 2.6986-3.57371 3.1608-2.92237 3.62299-2.27503 4.12782-1.69029 4.67659-1.16948 4.82045-1.05493 4.95764-0.945708 5.08818-0.845809 5.21738-0.743247 5.33992-0.636688 5.45447-0.519474 5.94597-0.0865789 6.33625 0.266397 6.62395 0.540785 6.91299 0.813842 7.05818 1.03895 7.05818 1.2121 7.05818 1.26805 7.02088 1.32666 6.94896 1.38526 6.87703 1.44254 6.7385 1.49981 6.53871 1.55709 6.24967 1.645 5.81544 1.72359 5.24002 1.79685 4.66194 1.86744 3.86675 1.93271 2.8571 1.99132Z" fill="#1A1A18" fill-rule="nonzero" fill-opacity="1" transform="matrix(1 0 0 -1.00519 614.86 364.571)"/><path d="M0 0C-0.102563-0.202461-0.209121-0.419575-0.326336-0.650008-0.354308-0.76589-0.398263-0.888433-0.454206-1.01897-0.512814-1.14817-0.571421-1.2867-0.628696-1.42922-0.773882-1.74756-0.888433-2.06457-0.97368-2.38159-1.06026-2.6986-1.10421-2.95967-1.10421-3.1608-1.10421-3.76685-0.66466-4.30897 0.217113-4.78582 1.09622-5.26133 2.08455-5.49843 3.18211-5.49843 3.78816-5.49843 4.32229-5.40519 4.78315-5.21871 5.24535-5.02957 5.65027-4.83643 5.99792-4.63397 6.08317-4.57536 6.16975-4.51942 6.25633-4.46081 6.34291-4.40354 6.42948-4.34493 6.51473-4.28632 6.97693-3.96931 7.28861-3.77617 7.44712-3.70291 7.60563-3.63099 7.7295-3.59369 7.81608-3.59369 7.90133-3.59369 7.98125-3.615 8.05317-3.65896 8.1251-3.70291 8.16106-3.79748 8.16106-3.94134 8.16106-4.08519 8.07448-4.25835 7.90133-4.46081 7.7295-4.66194 7.3965-4.9643 6.90633-5.37056 6.64527-5.57302 6.37754-5.78747 6.10448-6.0179 5.83009-6.251 5.54771-6.48143 5.26133-6.7132 4.68325-7.14476 4.0772-7.57765 3.44318-8.01055 2.80649-8.44478 2.17113-8.82039 1.53578-9.13741 0.988332-9.36784 0.447546-9.56231-0.0865789-9.72215-0.622036-9.87932-1.14817-9.95924-1.66631-9.95924-1.8408-9.95924-2.01396-9.94459-2.18712-9.91528-2.36027-9.88731-2.53343-9.84336-2.70659-9.78475-3.36992-9.52635-3.97597-9.07214-4.52475-8.42213-5.07352-7.77346-5.34791-6.91299-5.34791-5.84608L-5.34791-5.7595-5.34791-5.62896C-5.31861-4.79248-5.07352-3.90404-4.61266-2.96633-4.15046-2.02994-3.52842-0.867121-2.75055 0.519474-3.55906 0.547445-4.17976 0.640684-4.61266 0.800522-5.04422 0.959028-5.34791 1.14018-5.52107 1.34264-5.57968 1.42922-5.6223 1.5158-5.65027 1.60104-5.68091 1.68762-5.69423 1.75955-5.69423 1.81816-5.69423 1.96334-5.66626 2.11386-5.60765 2.27236-5.55037 2.43087-5.47712 2.61069-5.39187 2.81315-5.27732 3.01694-5.15344 3.21008-5.02291 3.39922-4.89238 3.5857-4.74053 3.73755-4.5687 3.85343-4.48212 3.96798-4.38223 4.05456-4.26501 4.11183-4.15046 4.17044-4.04923 4.19974-3.96265 4.19974L-3.85476 4.19974-3.74554 4.19974C-3.57371 4.17044-3.40721 4.13448-3.24738 4.09052-3.0902 4.04923-2.90905 3.99728-2.70659 3.94001-2.62001 3.9107-2.54009 3.8814-2.46817 3.85343-2.39624 3.82279-2.31632 3.79482-2.23107 3.76685-2.08589 3.73755-1.92738 3.70158-1.75422 3.65763-1.58106 3.615-1.37993 3.57771-1.14817 3.54974-0.137194 5.54105 0.923065 7.34456 2.03527 8.96292 3.14481 10.5786 4.46614 11.3871 5.99792 11.3871 6.40151 11.3871 6.71852 11.3219 6.94896 11.1927 7.17939 11.0621 7.35255 10.9249 7.46843 10.7811 7.4964 10.6945 7.52704 10.6159 7.55501 10.5426 7.58298 10.4707 7.59897 10.4055 7.59897 10.3468 7.59897 9.71282 7.10746 8.81773 6.12579 7.66423 5.14412 6.50807 3.76019 4.96297 1.97 3.03026 2.4029 2.94368 2.80649 2.88641 3.18211 2.8571 3.55773 2.8278 3.88806 2.81315 4.1771 2.81315 4.55272 2.81315 4.90037 2.83446 5.21738 2.87842 5.53439 2.92237 5.82343 2.95834 6.08317 2.98631 6.31493 3.01694 6.52938 3.05157 6.73184 3.09553 6.93431 3.13815 7.15142 3.1608 7.38185 3.1608L7.46843 3.1608 7.55501 3.1608 7.64159 3.1608C7.69886 3.1608 7.75081 3.14481 7.7921 3.11684 7.83739 3.08887 7.85737 3.03026 7.85737 2.94368 7.85737 2.79983 7.76413 2.64132 7.57765 2.46817 7.38984 2.29368 7.13677 2.10587 6.81842 1.90474 6.21237 1.52912 5.3972 1.19079 4.3729 0.885769 3.34727 0.583409 2.27236 0.431563 1.14684 0.431563L0.909745 0.431563 0.713943 0.431563C0.655336 0.431563 0.590069 0.438223 0.519474 0.454206 0.447546 0.468858 0.367627 0.475518 0.279717 0.475518 0.193138 0.359636 0.0998988 0.201129 0 0" fill="#1A1A18" fill-rule="nonzero" fill-opacity="1" transform="matrix(1 0 0 -1.00519 635.492 363.134)"/><path d="M0 0C0.173158 0.0865789 0.352976 0.143854 0.540785 0.173158 0.727263 0.202461 0.937716 0.217113 1.16815 0.217113 1.37061 0.217113 1.58772 0.209121 1.81816 0.195802 2.04859 0.179818 2.29368 0.158506 2.55474 0.130534 2.87176 0.0998988 3.21008 0.079919 3.57105 0.0652672 3.93201 0.0506154 4.31429 0.0439555 4.71789 0.0439555 5.20939 0.0719271 5.7222 0.123874 6.25633 0.195802 6.79045 0.266397 7.33124 0.375619 7.87868 0.519474 9.84203 1.03895 11.6535 1.95535 13.3145 3.27002 14.9742 4.58202 15.804 6.22169 15.804 8.18371 15.804 8.29826 15.7973 8.42213 15.7827 8.55267 15.7667 8.68187 15.7454 8.81773 15.7174 8.96292 15.5736 9.56897 15.2326 10.1164 14.6998 10.6079 14.1656 11.0994 13.3212 11.3445 12.1677 11.3445 11.3285 11.3445 10.3468 11.1354 9.22132 10.7171 8.0958 10.2976 6.9423 9.75678 5.75816 9.09345 5.06553 8.71783 4.3729 8.30492 3.68027 7.86003 2.98631 7.40982 2.32165 6.9716 1.68762 6.53871 1.14018 6.13245 0.634024 5.75017 0.173158 5.39187-0.28904 5.02957-0.708615 4.67659-1.0829 4.33028L-7.96659-1.86211C-8.74714-2.55474-9.58495-3.36326-10.48-4.28632-11.3751-5.20939-12.2836-6.16309-13.2066-7.14476-13.4091-7.34722-13.6035-7.54968-13.7914-7.75081-13.9805-7.95327-14.1736-8.15574-14.3774-8.35686-15.9931-10.0019-17.5662-11.4524-19.0953-12.7085-20.6258-13.9645-21.9391-14.5919-23.0367-14.5919-23.4975-14.5919-23.9104-14.44-24.2701-14.1377-24.631-13.834-24.8828-13.4957-25.028-13.1187-25.0852-13.0321-25.1225-12.9389-25.1372-12.839-25.1505-12.7364-25.1572-12.6432-25.1572-12.5566-25.1572-11.6335-24.3793-10.0085-22.8195-7.68554-21.2611-5.36123-18.6771-1.58772-15.0687 3.63631-15.82 3.60834-16.4047 3.72955-16.823 4.00527-17.2412 4.27966-17.5795 4.57536-17.8406 4.89238-17.8992 4.97895-17.9551 5.05887-18.0137 5.1308-18.071 5.20273-18.1296 5.28265-18.1856 5.37056-18.8223 6.29362-19.2258 6.92099-19.3977 7.25398-19.5722 7.58431-19.6587 7.83739-19.6587 8.01188-19.6587 8.18371-19.6214 8.31424-19.5495 8.40082-19.4789 8.4874-19.3977 8.55933-19.3124 8.61793-19.2831 8.61793-19.2552 8.62459-19.2258 8.63791-19.1979 8.65256-19.1672 8.65922-19.1393 8.65922L-19.074 8.65922-19.0087 8.65922-18.9435 8.65922-18.8782 8.65922-18.7916 8.65922C-18.6771 8.63125-18.5705 8.60195-18.468 8.57265-18.3681 8.54467-18.2588 8.50072-18.1443 8.44344-17.9698 8.38484-17.79 8.33555-17.6008 8.2916-17.4144 8.24897-17.2052 8.22766-16.9735 8.22766-16.454 8.22766-15.9065 8.33555-15.3285 8.55267-14.7517 8.76845-14.1736 9.06548-13.5969 9.43977-13.0481 9.75678-12.5007 10.1324-11.9506 10.5653-11.4031 10.9982-10.8836 11.4457-10.3935 11.9079-9.87399 12.3395-9.39581 12.7737-8.96425 13.2066-8.53135 13.6408-8.14108 14.0298-7.79477 14.3748-7.04353 15.126-6.5174 15.6455-6.2137 15.9345-5.91134 16.2236-5.68757 16.3674-5.54238 16.3674-5.51441 16.3674-5.47712 16.3514-5.43582 16.3235-5.39187 16.2955-5.35591 16.2515-5.3266 16.1956-5.24002 16.0784-5.1601 15.8759-5.08818 15.5869-5.01625 15.3005-4.99494 14.8809-5.02291 14.3321L-5.02291 14.0071-5.02291 13.6821C-5.05354 12.5846-5.30529 11.3725-5.78081 10.0458-6.25766 8.71783-7.91065 7.02754-10.7385 4.97895-11.0861 4.72055-11.4098 4.48212-11.7135 4.26501-12.0158 4.04923-12.2982 3.82546-12.5566 3.59369-12.7311 3.44984-12.9043 3.30465-13.0761 3.1608-13.2506 3.01694-13.4237 2.8571-13.5969 2.68528-14.4054 1.90474-15.3218 0.808514-16.3461-0.606052-17.3717-2.02062-18.9808-4.30097-21.1745-7.44712-19.2112-6.23501-17.5009-5.13746-16.0437-4.15579-14.5866-3.17545-13.2066-2.2071-11.9079-1.25606-11.792-1.19745-11.6842-1.13352-11.5829-1.06026-11.4817-0.988332-11.3885-0.909745-11.3019-0.823166-11.0128-0.620704-10.7385-0.426235-10.48-0.238425-10.219-0.0506154-9.94592 0.143854-9.65688 0.347648-0.76589 6.8131 5.69956 10.9249 9.7408 12.6871 13.7834 14.4467 16.5832 15.3285 18.1416 15.3285 19.0647 15.3285 19.8945 15.0328 20.6311 14.44 21.3677 13.8486 21.7366 12.9176 21.7366 11.6482 21.7366 11.0994 21.6634 10.5213 21.5195 9.91528 21.3743 9.30923 21.1719 8.71783 20.9135 8.13975 19.8452 5.8594 17.7367 3.76019 14.5919 1.8408 11.4457-0.079919 7.18605-1.09755 1.81816-1.2121 4.55938-5.94597 7.22335-9.21599 9.80606-11.0182 12.3901-12.8243 14.6199-13.7248 16.4966-13.7248 18.2282-13.7248 19.6947-13.2066 20.8922-12.1677 22.0883-11.1274 22.6877-9.72748 22.6877-7.96659 22.6877-7.73616 22.681-7.51239 22.6664-7.29527 22.6517-7.07949 22.6157-6.86904 22.5585-6.66924 22.5292-6.52405 22.4932-6.38686 22.4492-6.25633 22.408-6.12579 22.384-5.98993 22.384-5.84608 22.384-5.67159 22.4213-5.54238 22.4932-5.45447 22.5665-5.36789 22.6451-5.31195 22.7316-5.28265 22.7596-5.25334 22.7902-5.24002 22.8182-5.24002L22.9048-5.24002C23.2511-5.24002 23.5108-5.53572 23.6853-6.12579 23.8572-6.71852 23.9437-7.50573 23.9437-8.4874 23.9437-8.71783 23.9371-8.94827 23.9224-9.1787 23.9064-9.41046 23.8718-9.6409 23.8132-9.87133 23.4962-11.4897 22.5518-12.9669 20.9787-14.3095 19.4057-15.6521 16.9721-16.3235 13.6821-16.3235 10.1311-16.3235 7.09281-15.415 4.56737-13.5969 2.04193-11.7787 5.91519e-16-9.77143-1.55975-7.57765-2.05125-6.88369-2.48948-6.20704-2.88108-5.54238-3.27002-4.87906-3.60968-4.22905-3.89738-3.59369-3.95599-3.44984-4.01327-3.29799-4.07054-3.13949-4.13048-2.98098-4.15845-2.81315-4.15845-2.64132-4.15845-2.49614-4.12116-2.37493-4.04923-2.27236-3.97597-2.17247-3.86941-2.07923-3.72423-1.99132Z" fill="#1A1A18" fill-rule="nonzero" fill-opacity="1" transform="matrix(1 0 0 -1.00519 684.008 357.738)"/><path d="M0 0C-1.18413-0.606052-2.19511-0.909745-3.03159-0.909745-3.11817-0.909745-3.21141-0.901753-3.31264-0.888433-3.41387-0.872449-3.52176-0.867121-3.63765-0.867121-4.38889-0.692631-5.08152-0.274389-5.71554 0.388939-6.3509 1.0536-6.66924 1.94869-6.66924 3.07422-6.66924 3.62299-6.55469 4.24237-6.32159 4.93633-6.09116 5.62896-5.78747 6.33625-5.41185 7.05818-5.03889 7.77878-4.61932 8.47941-4.15845 9.15872-3.69625 9.8367-3.2194 10.4494-2.72923 10.9982-2.20976 11.6042-1.69029 12.0957-1.16948 12.47-0.650008 12.8456-0.202461 13.0321 0.173158 13.0321 0.258405 13.0321 0.359636 13.0188 0.475518 12.9908 0.590069 12.9602 0.705951 12.9176 0.823166 12.8603 1.10954 12.7431 1.37727 12.5499 1.62236 12.2756 1.86744 11.9998 1.99132 11.6895 1.99132 11.3445 1.99132 10.7944 1.73957 10.2616 1.23342 9.74346 0.727263 9.22399 0.173158 8.7458-0.432895 8.31424-0.606052 8.19836-0.76589 8.08914-0.909745 7.98791-1.05493 7.88801-1.19745 7.79477-1.34264 7.70686-1.66098 7.50573-1.95535 7.2673-2.23107 6.99291-2.50546 6.71852-2.64132 6.36555-2.64132 5.93265-2.64132 5.44115-2.29634 4.98561-1.60371 4.5687-0.909745 4.14913 0.0146518 3.94001 1.16815 3.94001 1.91806 3.94001 2.78518 4.22106 3.76685 4.78582 4.74852 5.34791 6.10448 6.85572 7.83739 9.30923 7.86536 9.36651 7.90133 9.42378 7.94395 9.48239 7.98791 9.541 8.02387 9.59694 8.05317 9.65555 8.51537 10.2616 8.97624 10.825 9.43843 11.3445 9.8993 11.864 10.4361 12.1237 11.0421 12.1237 11.1274 12.1237 11.2286 12.1157 11.3445 12.1024 11.4591 12.0877 11.5749 12.0518 11.6895 11.9945 11.9785 11.8786 12.2449 11.7135 12.4913 11.4963 12.7364 11.2792 12.8603 11.0115 12.8603 10.6945 12.8603 10.4361 12.787 10.1684 12.6432 9.89397 12.4993 9.61959 12.3102 9.33854 12.0798 9.0495 11.9066 8.84837 11.7268 8.6459 11.539 8.44344 11.3498 8.23965 11.1567 8.03985 10.9529 7.83739 10.8677 7.77878 10.7877 7.70686 10.7158 7.62028 10.6439 7.5337 10.564 7.46177 10.4774 7.40316 9.95791 6.9423 9.56897 6.57334 9.30923 6.30028 9.0495 6.02589 8.91896 5.77415 8.91896 5.54238 8.91896 5.48511 8.92562 5.43316 8.9416 5.39187 8.95492 5.34791 8.97624 5.29597 9.00687 5.24002 9.12142 4.95098 9.39581 4.67659 9.82737 4.41686 10.2616 4.15579 10.7225 3.99728 11.214 3.94001L11.3871 3.94001 11.559 3.94001C12.1677 3.94001 12.7577 4.0772 13.3358 4.35159 13.9139 4.62465 14.4334 4.93633 14.8942 5.28265 15.0088 5.36789 15.126 5.45714 15.2406 5.54238 15.3564 5.62896 15.471 5.71554 15.5869 5.80212 15.788 5.97395 15.9412 6.09782 16.0424 6.16975 16.1423 6.24167 16.2209 6.27764 16.2795 6.27764 16.4247 6.27764 16.5406 6.24167 16.6271 6.16975 16.7137 6.09782 16.7577 6.00458 16.7577 5.8887 16.7577 5.80212 16.5899 5.57035 16.2582 5.19607 15.9252 4.82045 14.9955 3.99728 13.4664 2.7279 12.3981 1.83281 11.3365 1.03895 10.2842 0.347648 9.22931-0.347648 8.28494-0.692631 7.44712-0.692631 6.6093-0.692631 5.86739-0.303692 5.21738 0.475518 4.56737 1.25606 4.2144 2.32431 4.15579 3.68027 2.5694 1.83281 1.1828 0.606052 0 0" fill="#1A1A18" fill-rule="nonzero" fill-opacity="1" transform="matrix(1 0 0 -1.00519 714.621 372.71)"/><path d="M0 0C-0.189142-0.189142-0.354308-0.354308-0.498162-0.49683-0.612712-0.584741-0.729927-0.685971-0.844478-0.800522-0.96036-0.916405-1.11887-1.08823-1.32133-1.32-1.52246-1.52246-1.73957-1.74623-1.97-1.99132-2.20177-2.23773-2.44685-2.47483-2.70659-2.70659-3.48447-3.4565-4.35159-4.12782-5.30529-4.72055-6.25633-5.31062-7.2673-5.60632-8.33555-5.60632-9.28792-5.60632-10.0178-5.25334-10.5213-4.54606-11.0275-3.83878-11.3378-3.03692-11.4524-2.14183-11.4817-2.02728-11.4963-1.9114-11.4963-1.79685L-11.4963-1.45053C-11.4963 0.540785-10.8037 2.17913-9.41712 3.46449-8.03186 4.74852-6.5174 5.75284-4.87106 6.47344-3.54308 7.05152-2.29634 7.46976-1.12553 7.7295 0.0439555 7.98791 0.872449 8.11844 1.36395 8.11844 1.53578 8.11844 1.66631 8.09047 1.75289 8.03186 1.83947 7.97459 1.9114 7.90133 1.97 7.81608 1.97 7.78811 1.97666 7.75747 1.99132 7.7295 2.00464 7.69886 2.01396 7.67089 2.01396 7.64292 2.01396 7.38185 1.87676 7.19537 1.60104 7.07949 1.32666 6.96494 1.0163 6.87836 0.67132 6.81976 0.584741 6.81976 0.498162 6.8131 0.410251 6.79844 0.323672 6.78379 0.238425 6.7758 0.151846 6.7758-1.78353 6.48676-3.34195 5.8887-4.52475 4.97895-5.70888 4.07054-6.30028 3.06756-6.30028 1.97-6.30028 1.2494-6.08317 0.67132-5.65027 0.238425-5.21738-0.193138-4.72721-0.410251-4.17976-0.410251-3.74554-0.410251-3.31264-0.323672-2.87842-0.151846-2.44685 0.0213117-2.01396 0.238425-1.57973 0.498162-1.14684 0.757899-0.729927 1.04694-0.323672 1.36395 0.079919 1.68096 0.482178 2.01396 0.888433 2.36027 1.00298 2.44685 1.12553 2.54808 1.25606 2.66397 1.38526 2.77852 1.52246 2.8944 1.66631 3.00895 1.92738 3.78949 2.41089 4.97229 3.11684 6.56002 3.82546 8.14641 4.61133 9.80873 5.47712 11.5403 5.76482 12.1157 6.06319 12.6871 6.36555 13.2492 6.66924 13.8127 6.96228 14.3535 7.25132 14.8743 8.20502 16.5472 9.11476 17.9764 9.98055 19.1606 10.8463 20.3447 11.5523 20.9361 12.1024 20.9361 12.478 20.9361 12.795 20.683 13.0561 20.1782 13.3145 19.6734 13.445 18.6851 13.445 17.2119 13.445 16.5193 13.3864 15.8759 13.2706 15.2845 13.156 14.6918 12.9535 14.095 12.6645 13.489 12.2023 12.478 11.503 11.4244 10.564 10.3282 9.62624 9.23065 8.3915 7.93063 6.86238 6.43082 5.6223 5.21871 4.75518 4.273 4.26501 3.59369 3.77351 2.91571 3.52842 2.37493 3.52842 1.97 3.52842 1.85545 3.54974 1.73957 3.59369 1.62502 3.63631 1.50781 3.68826 1.37727 3.74554 1.23475 4.00527 0.829826 4.41686 0.440887 4.97895 0.0652672 5.54238-0.310352 6.14044-0.612712 6.7758-0.844478 7.09281-0.96036 7.40316-1.0536 7.70686-1.12553 8.00922-1.19745 8.2916-1.23342 8.55267-1.23342 9.21466-1.23342 9.78608-1.08157 10.2616-0.77921 10.7385-0.475518 11.1634-0.137194 11.539 0.238425 11.6549 0.354308 11.7787 0.475518 11.9066 0.606052 12.0371 0.736587 12.161 0.857797 12.2756 0.97368 12.3914 1.06026 12.4913 1.12553 12.5779 1.16948 12.6645 1.2121 12.7364 1.23475 12.795 1.23475 12.9096 1.20544 12.9908 1.1535 13.0321 1.0829 13.0761 1.00964 13.0974 0.932388 13.0974 0.844478 13.0974 0.78587 13.0907 0.729927 13.0761 0.67132 13.0601 0.612712 13.0401 0.555437 13.0108 0.498162 12.9828 0.468858 12.9455 0.426235 12.9043 0.367627 12.8603 0.310352 12.823 0.266397 12.795 0.238425 12.7671 0.179818 12.7364 0.137194 12.7085 0.109223 12.6778 0.079919 12.6498 0.0506154 12.6219 0.0213117L11.1927-1.57973C10.2123-2.64798 9.18669-3.615 8.11844-4.48079 7.05152-5.34791 5.83675-5.78081 4.48212-5.78081 3.44318-5.78081 2.53876-5.46912 1.77553-4.84842 1.00964-4.22905 0.627364-3.34061 0.627364-2.18712 0.627364-2.01396 0.634024-1.83947 0.650008-1.66631 0.66466-1.49449 0.67132-1.32 0.67132-1.14684 0.699291-0.916405 0.727263-0.685971 0.757899-0.454206 0.78587-0.223773 0.815174-0.00665992 0.844478 0.195802 0.872449 0.367627 0.901753 0.527465 0.929724 0.67132 0.959028 0.815174 0.988332 0.932388 1.0163 1.01897 0.527465 0.527465 0.186478 0.189142 0 0" fill="#1A1A18" fill-rule="nonzero" fill-opacity="1" transform="matrix(1 0 0 -1.00519 742.872 368.162)"/><path d="M0 0C0.851137 0.547445 1.27737 1.14018 1.27737 1.77553 1.27737 1.83414 1.27071 1.90607 1.25606 1.99265 1.24274 2.07923 1.21876 2.16581 1.19079 2.25105 1.13352 2.42554 1.01897 2.59204 0.845809 2.75055 0.67132 2.90905 0.396931 2.98764 0.0226437 2.98764-0.583409 2.98764-1.16815 2.74389-1.73158 2.25105-2.29368 1.75955-2.76387 1.2121-3.13815 0.606052-3.31264 0.375619-3.46449 0.137194-3.59236-0.107891-3.72289-0.354308-3.83212-0.578081-3.9187-0.77921-2.15781-0.808514-0.851137-0.547445 0 0M-2.87842-3.78816C-2.0699-4.14913-1.17481-4.40087-0.19447-4.54606 0.238425-4.60333 0.67132-4.64729 1.10421-4.67659 1.53844-4.70457 1.92738-4.71789 2.27503-4.71789 3.22606-4.71789 4.03458-4.53807 4.69924-4.1771 5.36257-3.81746 5.9553-3.4192 6.47344-2.98631 6.53071-2.93036 6.59598-2.87842 6.66924-2.83446 6.74117-2.79317 6.80644-2.74122 6.86371-2.68395 7.18072-2.42421 7.4045-2.25105 7.53503-2.16581 7.66423-2.07789 7.78811-2.03527 7.90133-2.03527 8.04651-2.03527 8.14641-2.07789 8.20502-2.16581 8.26363-2.25105 8.29293-2.35228 8.29293-2.46817 8.29293-2.49614 8.27029-2.5614 8.22766-2.66263 8.18371-2.76387 8.06116-2.91571 7.86003-3.11684 7.57099-3.43519 7.1674-3.83878 6.64793-4.32895 6.12712-4.82045 5.55037-5.3266 4.91502-5.84474 4.42352-6.24967 3.9107-6.64527 3.37791-7.03554 2.84378-7.42448 2.303-7.77878 1.75422-8.0958 1.14817-8.38484 0.563429-8.62992 0-8.83238-0.562097-9.03484-1.10288-9.13474-1.62236-9.13474-1.9114-9.13474-2.2071-9.10677-2.51079-9.0495-2.81315-8.99089-3.1235-8.91896-3.44051-8.83238-4.36624-8.51537-5.21738-7.96659-5.99526-7.18605-6.7758-6.40817-7.16607-5.33992-7.16607-3.98396-7.16607-3.60834-7.12212-3.22606-7.03554-2.83446-6.94896-2.44552-6.81842-2.04859-6.64527-1.645-6.01124-0.0865789-4.90703 1.37061-3.33395 2.72923-1.75955 4.08386-0.0932388 5.00959 1.66898 5.49843 2.04193 5.61564 2.41755 5.70089 2.79317 5.7595 3.16746 5.8181 3.54308 5.84608 3.9187 5.84608 4.6686 5.84608 5.19607 5.63562 5.49843 5.21871 5.80345 4.79914 5.9553 4.33028 5.9553 3.8108 5.9553 3.60834 5.92466 3.39123 5.86739 3.1608 5.80878 2.93036 5.7222 2.71325 5.60765 2.51212 5.0016 1.32799 3.77351 0.253077 1.92738-0.713943 0.079919-1.68096-1.94203-2.14982-4.13448-2.12185-4.1065-2.87176-3.68693-3.42719-2.87842-3.78816" fill="#1A1A18" fill-rule="nonzero" fill-opacity="1" transform="matrix(1 0 0 -1.00519 763.135 364.224)"/><path d="M0 0C-0.0293036 0-0.0506154-0.00932388-0.0652672-0.0226437-0.079919-0.0372955-0.102563-0.0586073-0.130534-0.0865789-0.158506-0.0865789-0.189142-0.102563-0.217113-0.130534-0.246417-0.159838-0.28904-0.17449-0.347648-0.17449-0.404923-0.202461-0.47019-0.233097-0.540785-0.261069-0.612712-0.28904-0.67798-0.303692-0.736587-0.303692L-0.823166-0.303692C-0.880441-0.274389-0.932388-0.233097-0.97368-0.17449-1.01897-0.115883-1.03895-0.0586073-1.03895 0-1.03895 0.114551-1.01897 0.207789-0.97368 0.279717-0.932388 0.352976-0.880441 0.416911-0.823166 0.475518-0.795194 0.50349-0.764558 0.534125-0.736587 0.562097L1.25606 2.42421C1.22676 2.45218 1.19745 2.48282 1.16815 2.51079 1.14018 2.53876 1.10954 2.5694 1.08157 2.59737 1.0536 2.65464 1.0243 2.71325 0.994992 2.77186 0.96702 2.8278 0.951036 2.88641 0.951036 2.94368 0.951036 3.08887 1.04428 3.27535 1.23342 3.50578 1.42123 3.73755 1.71559 4.03991 2.12185 4.41553L4.54606 6.58C4.66194 6.69721 4.8058 6.79711 4.97895 6.88369 5.15211 6.97027 5.33992 7.0422 5.54238 7.1008 5.65693 7.12878 5.77148 7.15808 5.8887 7.18605 6.00325 7.21535 6.11913 7.23134 6.23501 7.23134L6.30028 7.23134C6.31493 7.23134 6.32159 7.21535 6.32159 7.18605 6.34957 7.18605 6.38686 7.17273 6.42948 7.14476 6.47344 7.11412 6.49475 7.08615 6.49475 7.05818 6.52272 7.02754 6.54537 6.99291 6.56002 6.94896 6.57334 6.90633 6.56668 6.85572 6.53871 6.79711L6.53871 6.71053C6.53871 6.68123 6.53071 6.65992 6.5174 6.64527 6.50141 6.63195 6.49475 6.6093 6.49475 6.58 6.46545 6.52272 6.42948 6.47344 6.38686 6.42948 6.34291 6.38686 6.30561 6.33625 6.27764 6.27764 6.24967 6.24967 6.21237 6.21237 6.16975 6.16975 6.12579 6.12579 6.07651 6.0885 6.0179 6.06052 5.96063 6.00325 5.91667 5.94597 5.8887 5.8887 5.8594 5.83009 5.84608 5.75816 5.84608 5.67159 5.84608 5.5557 5.96729 5.45447 6.21237 5.36789 6.45746 5.28265 6.85572 5.23736 7.40316 5.23736L7.75081 5.23736 8.05317 5.23736 8.22633 5.23736C8.28494 5.23736 8.34221 5.25201 8.40082 5.28265L8.91896 5.28265 9.48239 5.28265C10.3775 5.28265 10.9462 5.21738 11.1927 5.08684 11.4377 4.95764 11.5616 4.74852 11.5616 4.45948L11.5616 4.19974C11.5616 4.11183 11.5456 4.01193 11.5177 3.89738 11.5177 3.83744 11.5097 3.77351 11.4963 3.70158 11.4804 3.62965 11.4591 3.56439 11.4311 3.50578 11.4004 3.33395 11.3658 3.17545 11.3219 3.03026 11.2792 2.88641 11.2006 2.75587 11.0834 2.64132 10.9982 2.52411 10.881 2.40823 10.7385 2.29368 10.5919 2.17913 10.3921 2.04859 10.1324 1.90474 9.8993 1.75955 9.65555 1.60904 9.39581 1.45053 9.13474 1.29202 8.87634 1.10954 8.61527 0.909745 8.27029 0.648676 7.93729 0.382279 7.62028 0.107891 7.30327-0.16783 7.02754-0.432895 6.79711-0.693963 6.59465-0.924397 6.43614-1.15616 6.32159-1.38659 6.20571-1.61703 6.14844-1.83414 6.14844-2.03527 6.14844-2.6986 6.50807-3.32863 7.23134-3.9187 7.95194-4.5101 8.7458-4.85108 9.61292-4.93633 9.66887-4.9643 9.73413-4.98029 9.80606-4.98029L10.0445-4.98029C10.1883-4.98029 10.3335-4.9643 10.4774-4.93633 10.6226-4.90836 10.7664-4.87906 10.9116-4.85108 11.2579-4.73653 11.5962-4.5687 11.9292-4.35159 12.2609-4.13448 12.5713-3.92669 12.8603-3.72423 13.0907-3.5524 13.2985-3.37791 13.4877-3.20475 13.6755-3.03159 13.8406-2.88774 13.9858-2.77186 14.1297-2.62667 14.2589-2.53343 14.3748-2.48948 14.4893-2.44685 14.5919-2.44019 14.6785-2.46817 14.765-2.46817 14.8303-2.4988 14.8743-2.55474 14.9156-2.61335 14.9395-2.67063 14.9395-2.72923 14.9395-2.81581 14.9156-2.90239 14.8743-2.98764 14.8303-3.07422 14.7784-3.1608 14.7224-3.24871 14.6918-3.27668 14.6705-3.29799 14.6571-3.31264 14.6412-3.32863 14.6199-3.34994 14.5919-3.37791 14.3614-3.63765 13.9858-4.01327 13.4664-4.50344 12.9455-4.99494 12.3541-5.49843 11.6895-6.0179 11.3445-6.30694 10.9835-6.59598 10.6079-6.88502 10.2323-7.17406 9.85801-7.4338 9.48239-7.66423 8.87634-8.01188 8.2916-8.30758 7.7295-8.55267 7.16607-8.79642 6.63861-8.92029 6.14844-8.92029 5.97395-8.92029 5.80212-8.90564 5.62896-8.87634 5.45447-8.84837 5.28265-8.80441 5.10949-8.74714 4.44483-8.51537 3.83878-8.10512 3.29133-7.51239 2.74122-6.92232 2.46817-6.14844 2.46817-5.19607 2.46817-4.33028 2.6986-3.57371 3.1608-2.92237 3.62299-2.27503 4.12782-1.69029 4.67659-1.16948 4.82045-1.05493 4.95764-0.945708 5.08818-0.845809 5.21738-0.743247 5.33992-0.636688 5.45447-0.519474 5.94597-0.0865789 6.33625 0.266397 6.62529 0.540785 6.91299 0.813842 7.05818 1.03895 7.05818 1.2121 7.05818 1.26805 7.02088 1.32666 6.94896 1.38526 6.87703 1.44254 6.7385 1.49981 6.53871 1.55709 6.24967 1.645 5.81544 1.72359 5.24002 1.79685 4.66194 1.86744 3.86675 1.93271 2.8571 1.99132Z" fill="#1A1A18" fill-rule="nonzero" fill-opacity="1" transform="matrix(1 0 0 -1.00519 772.468 364.571)"/><path d="M0 0C0.851137 0.547445 1.27737 1.14018 1.27737 1.77553 1.27737 1.83414 1.27071 1.90607 1.25606 1.99265 1.24274 2.07923 1.21876 2.16581 1.19079 2.25105 1.13352 2.42554 1.01897 2.59204 0.845809 2.75055 0.67132 2.90905 0.396931 2.98764 0.0226437 2.98764-0.583409 2.98764-1.16815 2.74389-1.73158 2.25105-2.29368 1.75955-2.76387 1.2121-3.13815 0.606052-3.31264 0.375619-3.46449 0.137194-3.59236-0.107891-3.72289-0.354308-3.83212-0.578081-3.9187-0.77921-2.15781-0.808514-0.851137-0.547445 0 0M-2.87842-3.78816C-2.0699-4.14913-1.17481-4.40087-0.19447-4.54606 0.238425-4.60333 0.67132-4.64729 1.10421-4.67659 1.53844-4.70457 1.92738-4.71789 2.27503-4.71789 3.22606-4.71789 4.03458-4.53807 4.69924-4.1771 5.36257-3.81746 5.9553-3.4192 6.47344-2.98631 6.53071-2.93036 6.59598-2.87842 6.66924-2.83446 6.74117-2.79317 6.80644-2.74122 6.86371-2.68395 7.18072-2.42421 7.4045-2.25105 7.53503-2.16581 7.66423-2.07789 7.78678-2.03527 7.90133-2.03527 8.04651-2.03527 8.14641-2.07789 8.20502-2.16581 8.26363-2.25105 8.29293-2.35228 8.29293-2.46817 8.29293-2.49614 8.27029-2.5614 8.22766-2.66263 8.18371-2.76387 8.06116-2.91571 7.86003-3.11684 7.57099-3.43519 7.1674-3.83878 6.64793-4.32895 6.12712-4.82045 5.55037-5.3266 4.91502-5.84474 4.42352-6.24967 3.9107-6.64527 3.37791-7.03554 2.84378-7.42448 2.303-7.77878 1.75422-8.0958 1.14817-8.38484 0.563429-8.62992 0-8.83238-0.562097-9.03484-1.10288-9.13474-1.62236-9.13474-1.9114-9.13474-2.2071-9.10677-2.51079-9.0495-2.81315-8.99089-3.1235-8.91896-3.44051-8.83238-4.36624-8.51537-5.21738-7.96659-5.99526-7.18605-6.7758-6.40817-7.16607-5.33992-7.16607-3.98396-7.16607-3.60834-7.12212-3.22606-7.03554-2.83446-6.94896-2.44552-6.81842-2.04859-6.64527-1.645-6.01124-0.0865789-4.90703 1.37061-3.33395 2.72923-1.75955 4.08386-0.0932388 5.00959 1.66898 5.49843 2.04193 5.61564 2.41755 5.70089 2.79317 5.7595 3.16746 5.8181 3.54308 5.84608 3.9187 5.84608 4.6686 5.84608 5.19607 5.63562 5.49843 5.21871 5.80345 4.79914 5.9553 4.33028 5.9553 3.8108 5.9553 3.60834 5.92466 3.39123 5.86739 3.1608 5.80878 2.93036 5.7222 2.71325 5.60765 2.51212 5.0016 1.32799 3.77351 0.253077 1.92738-0.713943 0.079919-1.68096-1.94203-2.14982-4.13448-2.12185-4.1065-2.87176-3.68693-3.42719-2.87842-3.78816" fill="#1A1A18" fill-rule="nonzero" fill-opacity="1" transform="matrix(1 0 0 -1.00519 794.571 364.224)"/><path d="M0 0C-0.0293036 0-0.0506154-0.00932388-0.0652672-0.0226437-0.079919-0.0372955-0.102563-0.0586073-0.130534-0.0865789-0.158506-0.0865789-0.189142-0.102563-0.217113-0.130534-0.246417-0.159838-0.28904-0.17449-0.347648-0.17449-0.404923-0.202461-0.47019-0.233097-0.540785-0.261069-0.612712-0.28904-0.67798-0.303692-0.736587-0.303692L-0.823166-0.303692C-0.880441-0.274389-0.932388-0.233097-0.97368-0.17449-1.01897-0.115883-1.03895-0.0586073-1.03895 0-1.03895 0.114551-1.01897 0.207789-0.97368 0.279717-0.932388 0.352976-0.880441 0.416911-0.823166 0.475518-0.795194 0.50349-0.764558 0.534125-0.736587 0.562097L1.25606 2.42421C1.22676 2.45218 1.19745 2.48282 1.16815 2.51079 1.14018 2.53876 1.10954 2.5694 1.08157 2.59737 1.0536 2.65464 1.02296 2.71325 0.994992 2.77186 0.96702 2.8278 0.951036 2.88641 0.951036 2.94368 0.951036 3.08887 1.04428 3.27535 1.23342 3.50578 1.42123 3.73755 1.71559 4.03991 2.12185 4.41553L4.54606 6.58C4.66194 6.69721 4.8058 6.79711 4.97895 6.88369 5.15211 6.97027 5.33992 7.0422 5.54238 7.1008 5.65693 7.12878 5.77148 7.15808 5.8887 7.18605 6.00325 7.21535 6.11913 7.23134 6.23501 7.23134L6.30028 7.23134C6.31493 7.23134 6.32159 7.21535 6.32159 7.18605 6.34957 7.18605 6.38686 7.17273 6.42948 7.14476 6.47344 7.11412 6.49475 7.08615 6.49475 7.05818 6.52272 7.02754 6.54537 6.99291 6.56002 6.94896 6.57334 6.90633 6.56668 6.85572 6.53871 6.79711L6.53871 6.71053C6.53871 6.68123 6.53071 6.65992 6.5174 6.64527 6.50141 6.63195 6.49475 6.6093 6.49475 6.58 6.46545 6.52272 6.42948 6.47344 6.38686 6.42948 6.34291 6.38686 6.30561 6.33625 6.27764 6.27764 6.24967 6.24967 6.21237 6.21237 6.16975 6.16975 6.12579 6.12579 6.07651 6.0885 6.0179 6.06052 5.96063 6.00325 5.91667 5.94597 5.8887 5.8887 5.8594 5.83009 5.84608 5.75816 5.84608 5.67159 5.84608 5.5557 5.96729 5.45447 6.21237 5.36789 6.45746 5.28265 6.85572 5.23736 7.40316 5.23736L7.75081 5.23736 8.05317 5.23736 8.22633 5.23736C8.28494 5.23736 8.34221 5.25201 8.40082 5.28265L8.91896 5.28265 9.48239 5.28265C10.3775 5.28265 10.9462 5.21738 11.1927 5.08684 11.4377 4.95764 11.5616 4.74852 11.5616 4.45948L11.5616 4.19974C11.5616 4.11183 11.5456 4.01193 11.5177 3.89738 11.5177 3.83744 11.5097 3.77351 11.4963 3.70158 11.4804 3.62965 11.4591 3.56439 11.4311 3.50578 11.4004 3.33395 11.3658 3.17545 11.3219 3.03026 11.2792 2.88641 11.2006 2.75587 11.0834 2.64132 10.9982 2.52411 10.881 2.40823 10.7385 2.29368 10.5919 2.17913 10.3921 2.04859 10.1324 1.90474 9.8993 1.75955 9.65555 1.60904 9.39581 1.45053 9.13474 1.29202 8.87634 1.10954 8.61527 0.909745 8.27029 0.648676 7.93729 0.382279 7.62028 0.107891 7.30327-0.16783 7.02754-0.432895 6.79711-0.693963 6.59465-0.924397 6.43614-1.15616 6.32159-1.38659 6.20571-1.61703 6.14844-1.83414 6.14844-2.03527 6.14844-2.6986 6.50807-3.32863 7.23001-3.9187 7.95194-4.5101 8.7458-4.85108 9.61292-4.93633 9.66887-4.9643 9.73413-4.98029 9.80606-4.98029L10.0445-4.98029C10.1883-4.98029 10.3335-4.9643 10.4774-4.93633 10.6226-4.90836 10.7664-4.87906 10.9116-4.85108 11.2579-4.73653 11.5962-4.5687 11.9292-4.35159 12.2609-4.13448 12.5713-3.92669 12.8603-3.72423 13.0907-3.5524 13.2985-3.37791 13.4877-3.20475 13.6755-3.03159 13.8406-2.88774 13.9858-2.77186 14.1297-2.62667 14.2589-2.53343 14.3748-2.48948 14.4893-2.44685 14.5919-2.44019 14.6785-2.46817 14.765-2.46817 14.829-2.4988 14.8743-2.55474 14.9156-2.61335 14.9382-2.67063 14.9382-2.72923 14.9382-2.81581 14.9156-2.90239 14.8743-2.98764 14.829-3.07422 14.7784-3.1608 14.7224-3.24871 14.6918-3.27668 14.6705-3.29799 14.6571-3.31264 14.6412-3.32863 14.6199-3.34994 14.5919-3.37791 14.3614-3.63765 13.9858-4.01327 13.4664-4.50344 12.9455-4.99494 12.3541-5.49843 11.6895-6.0179 11.3445-6.30694 10.9835-6.59598 10.6079-6.88502 10.2323-7.17406 9.85801-7.4338 9.48239-7.66423 8.87634-8.01188 8.2916-8.30758 7.7295-8.55267 7.16607-8.79642 6.63861-8.92029 6.14844-8.92029 5.97395-8.92029 5.80212-8.90564 5.62896-8.87634 5.45447-8.84837 5.28265-8.80441 5.10949-8.74714 4.44483-8.51537 3.83878-8.10512 3.29133-7.51239 2.74122-6.92232 2.46817-6.14844 2.46817-5.19607 2.46817-4.33028 2.6986-3.57371 3.1608-2.92237 3.62299-2.27503 4.12782-1.69029 4.67659-1.16948 4.82045-1.05493 4.95764-0.945708 5.08818-0.845809 5.21738-0.743247 5.33992-0.636688 5.45447-0.519474 5.94597-0.0865789 6.33625 0.266397 6.62395 0.540785 6.91299 0.813842 7.05818 1.03895 7.05818 1.2121 7.05818 1.26805 7.02088 1.32666 6.94896 1.38526 6.87703 1.44254 6.7385 1.49981 6.53871 1.55709 6.24967 1.645 5.81544 1.72359 5.24002 1.79685 4.66194 1.86744 3.86675 1.93271 2.8571 1.99132Z" fill="#1A1A18" fill-rule="nonzero" fill-opacity="1" transform="matrix(1 0 0 -1.00519 803.903 364.571)"/></g></g></g></g></g></svg>